<svg width="96" height="20" viewBox="0 0 96 20" fill="none" xmlns="http://www.w3.org/2000/svg">
<path d="M5.319 19.17L0 0.324001H3.267L5.751 9.828L7.398 16.227H7.56L9.207 9.828L11.718 0.324001H14.85L9.531 19.17H5.319Z" fill="black"/>
<path d="M17.8365 19.17V0.324001H29.6355V2.862H20.8605V8.343H29.3115V10.881H20.8605V16.632H29.6355V19.17H17.8365Z" fill="black"/>
<path d="M36.5369 4.671H36.2939V19.17H33.6479V0.324001H37.5359L43.0709 14.823H43.3139V0.324001H45.9599V19.17H42.0719L36.5369 4.671Z" fill="black"/>
<path d="M50.1074 0.324001H55.7234C58.1354 0.324001 59.9174 1.125 61.0694 2.727C62.2394 4.329 62.8244 6.669 62.8244 9.747C62.8244 12.825 62.2394 15.165 61.0694 16.767C59.9174 18.369 58.1354 19.17 55.7234 19.17H50.1074V0.324001ZM55.5344 16.686C56.9204 16.686 57.9464 16.227 58.6124 15.309C59.2964 14.373 59.6384 13.041 59.6384 11.313V8.181C59.6384 6.453 59.2964 5.13 58.6124 4.212C57.9464 3.276 56.9204 2.808 55.5344 2.808H53.1044V16.686H55.5344Z" fill="black"/>
<path d="M72.1828 19.494C70.9948 19.494 69.9598 19.278 69.0778 18.846C68.2138 18.396 67.4938 17.757 66.9178 16.929C66.3598 16.101 65.9458 15.084 65.6758 13.878C65.4058 12.672 65.2708 11.295 65.2708 9.747C65.2708 8.217 65.4058 6.849 65.6758 5.643C65.9458 4.419 66.3598 3.393 66.9178 2.565C67.4938 1.737 68.2138 1.107 69.0778 0.674999C69.9598 0.225 70.9948 0 72.1828 0C73.3708 0 74.3968 0.225 75.2608 0.674999C76.1428 1.107 76.8628 1.737 77.4208 2.565C77.9968 3.393 78.4198 4.419 78.6898 5.643C78.9598 6.849 79.0948 8.217 79.0948 9.747C79.0948 11.295 78.9598 12.672 78.6898 13.878C78.4198 15.084 77.9968 16.101 77.4208 16.929C76.8628 17.757 76.1428 18.396 75.2608 18.846C74.3968 19.278 73.3708 19.494 72.1828 19.494ZM72.1828 16.983C73.5328 16.983 74.4868 16.479 75.0448 15.471C75.6028 14.445 75.8818 13.059 75.8818 11.313V8.154C75.8818 6.426 75.6028 5.058 75.0448 4.05C74.4868 3.024 73.5328 2.511 72.1828 2.511C70.8328 2.511 69.8788 3.024 69.3208 4.05C68.7628 5.058 68.4838 6.426 68.4838 8.154V11.34C68.4838 13.068 68.7628 14.445 69.3208 15.471C69.8788 16.479 70.8328 16.983 72.1828 16.983Z" fill="black"/>
<path d="M85.5373 19.17H82.5403V0.324001H89.5873C91.3873 0.324001 92.7553 0.828001 93.6913 1.836C94.6453 2.844 95.1223 4.23 95.1223 5.994C95.1223 7.434 94.7713 8.622 94.0693 9.558C93.3673 10.494 92.3593 11.07 91.0453 11.286L95.3923 19.17H92.0443L88.0483 11.556H85.5373V19.17ZM89.1553 9.126C91.0273 9.126 91.9633 8.271 91.9633 6.561V5.4C91.9633 3.69 91.0273 2.835 89.1553 2.835H85.5373V9.126H89.1553Z" fill="black"/>
</svg>
